<?xml version="1.0" encoding="utf-8"?>
<!-- Generator: Adobe Illustrator 24.0.1, SVG Export Plug-In . SVG Version: 6.00 Build 0)  -->
<svg version="1.1" id="Layer_1" xmlns="http://www.w3.org/2000/svg" xmlns:xlink="http://www.w3.org/1999/xlink" x="0px" y="0px"
	 viewBox="0 0 500 500" style="enable-background:new 0 0 500 500;" xml:space="preserve">
<style type="text/css">
	.st0{fill:#1C824C;}
	.st1{fill:#F9F7F7;}
</style>
<path class="st0" d="M243.6,201.4c45.7,0,91.4,0,137.1,0c31.3,0,55.7,23.3,55.8,53.6c0.1,30.3-24,53.7-55.5,53.8c-7,0-14,0.5-21-0.1
	c-7.2-0.6-9.4,1.5-9.5,9.1c-0.6,54.2-35.9,101.8-87.2,118.6C182.2,463,98,402.7,97.2,317.3c-0.3-36.3,0.1-72.6-0.2-108.9
	c0-5.7,1.4-7.2,7.1-7.1C150.6,201.6,197.1,201.5,243.6,201.4C243.6,201.4,243.6,201.4,243.6,201.4z M223.8,218.5
	c-34.4,0-68.8,0.1-103.2-0.1c-5.2,0-6.9,1.2-6.9,6.7c0.3,30.6-0.2,61.3,0.2,91.9c0.6,48.3,32.6,90.4,78.2,104.3
	c5.9,1.8,8.2,1.2,7.8-5.7c-0.5-10.2-0.4-20.4-0.1-30.6c0.2-5.2-1.6-6.5-6.7-7c-36.9-3.9-62-30.7-62.4-65.8c-0.1-5.1,1-7.4,6.6-8.4
	c41.1-7.9,78.8,22.7,79.2,64.7c0.1,16.9,0.3,33.9,0,50.8c-0.1,5.7,2.1,6.7,7,6.6c4.8-0.1,8-0.1,7.8-6.6c-0.5-16.9-0.4-33.9-0.1-50.8
	c0.8-42.3,38.3-72.5,79.4-64.6c4.9,0.9,6.6,2.6,6.5,7.7c0,35.1-25.7,63.2-61.7,66.3c-6.1,0.5-7.6,2.3-7.3,8.1c0.5,9.7,0.6,19.4,0,29
	c-0.5,8,2.4,8,8.8,6c44.8-14,76.6-56.2,77.2-103.5c0.4-30.6-0.1-61.3,0.2-91.9c0.1-5.7-1.7-7.2-7.2-7.1
	C292.6,218.6,258.2,218.5,223.8,218.5z M350.9,255.1C350.9,255.1,350.8,255.1,350.9,255.1c-0.1,10.2,0.1,20.4-0.1,30.6
	c-0.1,4.2,0.6,6.5,5.6,6.3c9.6-0.4,19.3,0.2,29-0.3c19.4-1.1,34.5-17.5,34.3-36.8c-0.2-19.3-15.5-35.3-35-36.2
	c-9.4-0.4-18.8,0.1-28.2-0.3c-4.9-0.2-5.8,1.9-5.7,6.2C351,234.7,350.9,244.9,350.9,255.1z M254.2,360.9
	c19.8-0.6,39.5-16.7,44.2-35.6c1.1-4.4,0.6-6.3-4.7-5.9c-20.4,1.6-38.3,16.4-43.7,35.9C248.6,360.2,249.7,361.9,254.2,360.9z
	 M193.7,361c4.3,0.8,5.7-0.5,4.3-5.6c-5.4-19.7-24.5-35.2-44.5-35.9c-4.3-0.2-5,1.1-4.2,5C153.3,343.4,173.6,360.3,193.7,361z"/>
<path class="st0" d="M232.5,120.4c0,17.5-0.4,35,0.2,52.4c0,0.9,0.2,3.8-1.5,5.3c-0.8,0.7-1.7,0.9-7.1,0.9c-5.4,0.1-6.3-0.1-7.1-0.8
	c-1.7-1.5-1.6-4.3-1.6-5.2c0.3-34.9,0.3-69.9,0-104.8c0-0.9-0.1-3.8,1.6-5.2c0.9-0.8,1.8-0.7,6.6-0.6c5.4,0.1,6.3,0,7.3,0.8
	c1.9,1.6,1.7,4.6,1.7,5.6C232.2,86,232.5,103.2,232.5,120.4z"/>
<path class="st0" d="M278,139.5c0-11.3,0.4-22.5-0.1-33.8c0-1-0.2-3.6,1.4-5.1c0.8-0.7,1.7-0.9,7.4-0.8c5.3,0.1,6.1,0.2,7,0.9
	c1.7,1.5,1.6,4.2,1.6,5.2c-0.4,22.2-0.5,44.5,0,66.7c0,1,0.2,3.9-1.6,5.4c-0.9,0.7-1.8,0.8-7.2,0.7c-5.4-0.1-6.3-0.1-7.1-0.9
	c-1.8-1.6-1.5-4.5-1.4-5.5C278.4,161.5,278,150.5,278,139.5z"/>
<path class="st0" d="M169.9,139.7c0,11.3-0.3,22.5,0.1,33.8c0,0.8,0.2,3.3-1.4,4.7c-1,0.9-2.1,0.7-6.7,0.7c-5.2,0-6.3,0.4-7.4-0.6
	c-1.6-1.4-1.5-3.8-1.5-4.8c0.3-22.8,0.4-45.6,0-68.4c0-0.9-0.1-3.4,1.5-4.8c1-0.9,2-0.7,6.6-0.7c5.3,0,6.3-0.2,7.4,0.7
	c1.6,1.4,1.4,3.9,1.4,4.8C169.6,116.7,169.9,128.2,169.9,139.7z"/>
<path class="st0" d="M253.6,280.7c-0.8,21.5-9.2,38.7-25.4,52.3c-3.4,2.9-5.5,2.5-8.7-0.2c-33-27.1-33.3-75.8-0.6-103.4
	c3.7-3.1,6-3.8,10-0.3C244.8,242.8,253.1,260,253.6,280.7z M223.8,248.7c-15.1,16.7-16.4,43.6-3.1,60.8c2.3,3,3.6,3.9,6.5,0.4
	C240.7,293.1,239.3,263.3,223.8,248.7z"/>
<path class="st1" d="M223.8,248.7c15.5,14.7,17,44.4,3.3,61.2c-2.8,3.5-4.2,2.6-6.5-0.4C207.3,292.3,208.7,265.4,223.8,248.7z"/>
</svg>
